HIERARCHY
ROOT Hips
{
 OFFSET 0.000000 0.000000 0.000000
 CHANNELS 6 Xposition Yposition Zposition Yrotation Xrotation Zrotation
 JOINT Chest
 {
  OFFSET 0.000000 9.585900 0.002600
  CHANNELS 3 Yrotation Xrotation Zrotation
  JOINT Chest2
  {
   OFFSET 0.000000 9.601200 -0.005300
   CHANNELS 3 Yrotation Xrotation Zrotation
   JOINT Chest3
   {
    OFFSET 0.000000 9.561800 0.000000
    CHANNELS 3 Yrotation Xrotation Zrotation
    JOINT Chest4
    {
     OFFSET 0.000000 9.552100 0.000000
     CHANNELS 3 Yrotation Xrotation Zrotation
     JOINT Neck
     {
      OFFSET 0.000000 14.453000 0.000000
      CHANNELS 3 Yrotation Xrotation Zrotation
      JOINT Head
      {
       OFFSET 0.000000 8.936500 -0.011300
       CHANNELS 3 Yrotation Xrotation Zrotation
       End Site
       {
        OFFSET 0.000000 17.073600 -0.006000
       }
      }
     }
     JOINT RightCollar
     {
      OFFSET -2.921100 9.558500 0.000000
      CHANNELS 3 Yrotation Xrotation Zrotation
      JOINT RightShoulder
      {
       OFFSET -13.519700 0.000000 0.000000
       CHANNELS 3 Yrotation Xrotation Zrotation
       JOINT RightElbow
       {
        OFFSET 0.000000 -29.696600 0.000000
        CHANNELS 3 Yrotation Xrotation Zrotation
        JOINT RightWrist
        {
         OFFSET 0.000000 -24.004700 0.000000
         CHANNELS 3 Yrotation Xrotation Zrotation
         End Site
         {
          OFFSET 0.000000 -17.728500 0.000000
         }
        }
       }
      }
     }
     JOINT LeftCollar
     {
      OFFSET 2.921100 9.558500 0.000000
      CHANNELS 3 Yrotation Xrotation Zrotation
      JOINT LeftShoulder
      {
       OFFSET 13.519700 0.000000 0.000000
       CHANNELS 3 Yrotation Xrotation Zrotation
       JOINT LeftElbow
       {
        OFFSET 0.000000 -29.696600 0.000000
        CHANNELS 3 Yrotation Xrotation Zrotation
        JOINT LeftWrist
        {
         OFFSET 0.000000 -24.004700 0.000000
         CHANNELS 3 Yrotation Xrotation Zrotation
         End Site
         {
          OFFSET 0.000000 -17.728500 0.000000
         }
        }
       }
      }
     }
    }
   }
  }
 }
 JOINT RightHip
 {
  OFFSET -7.771700 -0.012900 -0.001300
  CHANNELS 3 Yrotation Xrotation Zrotation
  JOINT RightKnee
  {
   OFFSET 0.000000 -40.869800 0.001200
   CHANNELS 3 Yrotation Xrotation Zrotation
   JOINT RightAnkle
   {
    OFFSET 0.000000 -39.717900 0.002100
    CHANNELS 3 Yrotation Xrotation Zrotation
    JOINT RightToe
    {
     OFFSET 0.000000 -4.965400 11.033500
     CHANNELS 3 Yrotation Xrotation Zrotation
     End Site
     {
      OFFSET 0.000000 -1.423100 5.872300
     }
    }
   }
  }
 }
 JOINT LeftHip
 {
  OFFSET 7.771700 -0.012900 -0.001300
  CHANNELS 3 Yrotation Xrotation Zrotation
  JOINT LeftKnee
  {
   OFFSET 0.000000 -40.869800 0.001200
   CHANNELS 3 Yrotation Xrotation Zrotation
   JOINT LeftAnkle
   {
    OFFSET 0.000000 -39.717900 0.002100
    CHANNELS 3 Yrotation Xrotation Zrotation
    JOINT LeftToe
    {
     OFFSET 0.000000 -4.965400 11.033500
     CHANNELS 3 Yrotation Xrotation Zrotation
     End Site
     {
      OFFSET 0.000000 -1.423100 5.872300
     }
    }
   }
  }
 }
}
MOTION
Frames: 12
Frame Time: 0.008333
14.705693 49.774388 53.176525 173.566553 -33.399028 -7.074071 6.554412 19.122575 6.838560 0.759760 2.503931 0.638691 1.241611 4.148959 1.072311 5.617589 16.489902 4.974094 -2.574643 16.512819 1.363200 -5.237146 -5.062618 3.431079 -2.331960 -4.273908 -5.499778 2.630207 -3.243310 2.082583 104.540958 -75.407050 -115.998998 14.969753 3.736713 49.090225 -9.538363 -1.435764 0.613128 7.291543 -5.561219 -1.888675 -127.837593 -68.774962 131.567313 -8.598189 15.593076 -68.131973 0.895766 -47.002365 10.463621 -134.736482 85.496059 -123.195850 -3.052056 -14.198047 -2.809162 -0.116787 0.790383 -0.105772 -10.343507 -51.128567 16.363955 -151.876953 80.538668 -159.266880 1.677407 -16.516728 7.699004 -0.343016 -0.837017 -0.090075
14.708405 49.780851 53.184898 173.536115 -33.373699 -7.046132 6.565048 19.122561 6.825628 0.762011 2.507723 0.638429 1.244703 4.136470 1.067926 5.614598 16.495807 4.966645 -2.585151 16.485071 1.353975 -5.297850 -5.166262 3.400495 -2.322139 -4.311773 -5.542497 2.524425 -3.201019 1.920123 106.363368 -75.542108 -117.626585 15.312265 3.358484 51.834707 -9.568416 -1.448770 0.628212 7.534105 -5.598057 -1.815624 -130.212304 -69.107539 133.380787 -9.064041 15.604211 -70.829154 0.922448 -47.041169 10.416637 -135.100540 85.518748 -123.538234 -2.988518 -14.182470 -2.844390 -0.103054 0.784154 -0.098777 -10.286748 -51.160041 16.351716 -151.873001 80.545960 -159.255948 1.656186 -16.533598 7.671650 -0.340417 -0.826776 -0.075342
14.714492 49.790119 53.191503 173.523661 -33.367845 -7.047836 6.569169 19.139744 6.836511 0.762355 2.513100 0.634402 1.237227 4.170180 1.069516 5.620786 16.476071 4.946821 -2.620655 16.430311 1.330051 -5.337873 -5.254443 3.377649 -2.299757 -4.387210 -5.625276 2.430160 -3.121804 1.776794 108.376787 -75.679765 -119.414717 15.594235 2.942597 54.369909 -9.625292 -1.485711 0.665513 7.787517 -5.635991 -1.724799 -132.912149 -69.526773 135.469831 -9.410234 15.617565 -73.214034 0.932823 -47.052432 10.401246 -135.278911 85.536688 -123.700533 -2.915209 -14.173449 -2.864612 -0.130845 0.784922 -0.099679 -10.262792 -51.168579 16.371100 -151.837960 80.547678 -159.217158 1.641365 -16.543101 7.655912 -0.338958 -0.823727 -0.065735
14.718416 49.799909 53.197955 173.511647 -33.363379 -7.037928 6.566963 19.158970 6.835509 0.753873 2.541524 0.638451 1.247722 4.148961 1.061455 5.623089 16.486010 4.934705 -2.651239 16.381450 1.309828 -5.390001 -5.346241 3.347763 -2.251117 -4.479228 -5.779783 2.325904 -3.007395 1.681242 110.596663 -75.819546 -121.383743 15.809256 2.501473 56.692955 -9.676289 -1.524706 0.698785 8.012760 -5.678526 -1.603109 -136.001376 -70.007518 137.869411 -9.638490 15.662236 -75.230716 0.954417 -47.059157 10.370810 -135.439891 85.558435 -123.844737 -2.879173 -14.174547 -2.880345 -0.107798 0.794782 -0.098305 -10.238601 -51.174585 16.382156 -151.782284 80.552129 -159.175987 1.632980 -16.540609 7.671217 -0.349222 -0.825818 -0.070003
14.723850 49.808914 53.207399 173.478644 -33.343640 -7.029138 6.581542 19.159783 6.843671 0.762257 2.531331 0.635761 1.242292 4.166209 1.062258 5.626445 16.494984 4.926816 -2.652258 16.341283 1.303485 -5.468438 -5.454814 3.306274 -2.203667 -4.547348 -5.893764 2.243461 -2.902342 1.523989 112.987975 -75.962621 -123.501491 15.949733 2.044259 58.798420 -9.763967 -1.591765 0.750672 8.259392 -5.699707 -1.473973 -139.445892 -70.493726 140.552572 -9.718637 15.761284 -76.885550 0.967959 -47.080003 10.371701 -135.436561 85.594521 -123.790011 -3.040538 -14.173889 -2.873673 -0.123449 0.804018 -0.096741 -10.225910 -51.193445 16.414604 -151.774715 80.561192 -159.181275 1.637719 -16.544720 7.680679 -0.369894 -0.822962 -0.079455
14.725322 49.819241 53.214255 173.452862 -33.336998 -7.000656 6.585838 19.171316 6.826455 0.768478 2.526140 0.635548 1.238550 4.176839 1.061248 5.630726 16.509690 4.922549 -2.684269 16.290157 1.278347 -5.514601 -5.559735 3.273071 -2.162084 -4.602907 -5.981725 2.183313 -2.797807 1.325909 115.519233 -76.104704 -125.743406 16.007328 1.578858 60.705353 -9.817769 -1.662602 0.788399 8.454961 -5.727667 -1.310791 -143.045685 -70.948870 143.453603 -9.624700 15.866491 -78.333462 0.986979 -47.085923 10.367695 -135.240366 85.600264 -123.557688 -3.278295 -14.196721 -2.818748 -0.158622 0.818755 -0.129843 -10.180341 -51.202781 16.416446 -151.643730 80.561259 -159.068323 1.623505 -16.535592 7.670871 -0.362839 -0.835790 -0.063078
14.730918 49.830211 53.221942 173.422879 -33.329786 -6.997133 6.609888 19.166260 6.838079 0.756379 2.547277 0.636675 1.251608 4.157717 1.058616 5.626253 16.540996 4.920361 -2.712607 16.234594 1.253436 -5.555217 -5.669722 3.241304 -2.116709 -4.656816 -6.065481 2.138600 -2.688097 1.112998 118.188301 -76.244703 -128.111771 15.979460 1.121430 62.434691 -9.845707 -1.739338 0.817197 8.618919 -5.758819 -1.123723 -146.724151 -71.363906 146.523473 -9.355034 15.961695 -79.629263 0.985073 -47.092809 10.383040 -135.136715 85.611815 -123.441174 -3.303837 -14.193170 -2.823515 -0.148715 0.824617 -0.125266 -10.167995 -51.203045 16.489391 -151.343399 80.550587 -158.811346 1.607786 -16.534914 7.705350 -0.360927 -0.849528 -0.084599
14.737560 49.841418 53.229399 173.397884 -33.323695 -7.004672 6.623510 19.184266 6.859945 0.757322 2.550064 0.635742 1.252970 4.162163 1.056949 5.628644 16.550241 4.912330 -2.737924 16.175322 1.228799 -5.594573 -5.785854 3.211168 -2.067437 -4.712719 -6.146651 2.102963 -2.575081 0.890158 120.993345 -76.390787 -130.604500 15.877142 0.697804 63.989045 -9.868025 -1.832942 0.843440 8.769095 -5.779653 -0.925920 -150.591316 -71.745188 149.793409 -8.947096 16.086333 -80.719925 0.965791 -47.095737 10.403096 -135.059186 85.621705 -123.366963 -3.210951 -14.181114 -2.855232 -0.110886 0.828967 -0.106629 -10.172067 -51.202475 16.546046 -151.193230 80.548342 -158.672197 1.597175 -16.542168 7.704403 -0.363622 -0.846814 -0.086441
14.739658 49.851764 53.235767 173.357397 -33.318807 -6.978282 6.627752 19.216925 6.853282 0.770726 2.538587 0.630536 1.247083 4.181057 1.058090 5.638570 16.545973 4.901316 -2.762274 16.114755 1.205286 -5.633644 -5.900287 3.181844 -2.015179 -4.764303 -6.222986 2.069934 -2.461688 0.659837 123.934773 -76.548174 -133.220940 15.717319 0.333452 65.376004 -9.886520 -1.935651 0.867960 8.902410 -5.787615 -0.721264 -154.760681 -72.107138 153.357343 -8.463018 16.258140 -81.620932 0.957388 -47.097761 10.407541 -134.935364 85.619496 -123.254059 -3.177237 -14.183839 -2.867902 -0.136551 0.838299 -0.107442 -10.130452 -51.204467 16.558408 -151.048107 80.549328 -158.538386 1.578457 -16.542383 7.704090 -0.359078 -0.847825 -0.081182
14.739343 49.862019 53.240001 173.338315 -33.320883 -6.950574 6.634052 19.224358 6.835354 0.758743 2.556627 0.633946 1.255416 4.172598 1.054163 5.631163 16.571662 4.896163 -2.784639 16.052850 1.182965 -5.671347 -6.010970 3.152183 -1.957502 -4.814387 -6.294117 2.033736 -2.350955 0.424757 127.011645 -76.712471 -135.959003 15.509160 0.040307 66.610093 -9.897145 -2.045888 0.894543 9.017349 -5.784596 -0.513003 -159.352288 -72.451554 157.316765 -7.958392 16.489972 -82.343178 0.931687 -47.090370 10.410463 -134.893249 85.618992 -123.234870 -3.185483 -14.187695 -2.860218 -0.154122 0.841679 -0.125312 -10.089089 -51.199887 16.547762 -150.909233 80.551289 -158.417210 1.566821 -16.540629 7.709077 -0.356197 -0.846801 -0.068546
14.735089 49.869263 53.245766 173.306249 -33.304781 -6.896440 6.633680 19.229206 6.794515 0.759215 2.559775 0.633179 1.253395 4.202559 1.061773 5.627859 16.590199 4.881126 -2.836052 15.937040 1.138420 -5.683005 -6.090689 3.131646 -1.896800 -4.895047 -6.365399 1.993372 -2.241889 0.191178 130.207831 -76.877877 -138.806941 15.260406 -0.196423 67.704448 -9.906079 -2.187105 0.925000 9.111451 -5.776441 -0.306199 -164.414106 -72.762398 161.721064 -7.471866 16.782379 -82.918680 0.873899 -47.105152 10.409032 -134.851494 85.598423 -123.237213 -3.180296 -14.171422 -2.863231 -0.147829 0.821108 -0.125349 -10.021759 -51.219652 16.503163 -150.867682 80.560998 -158.388241 1.549284 -16.533056 7.708289 -0.350712 -0.855505 -0.069473
14.734875 49.875872 53.251925 173.311224 -33.283392 -6.890417 6.621552 19.229249 6.793667 0.759320 2.562218 0.632140 1.253563 4.205594 1.058497 5.625449 16.595551 4.875743 -2.856033 15.889768 1.119511 -5.736699 -6.199113 3.100496 -1.850077 -4.942192 -6.431843 1.955131 -2.133740 -0.037071 133.530581 -77.044930 -141.779426 14.985716 -0.403218 68.668358 -9.916125 -2.253340 0.937632 9.165321 -5.807872 -0.098430 -169.856936 -73.007229 166.504866 -7.013985 17.126468 -83.416885 0.858599 -47.122629 10.398086 -134.519706 85.566945 -122.903276 -3.134990 -14.178975 -2.872814 -0.137978 0.829416 -0.118176 -10.022552 -51.238173 16.507488 -150.926422 80.582133 -158.458667 1.516570 -16.529454 7.716928 -0.348009 -0.861220 -0.096839
